<mxfile host="65bd71144e">
    <diagram id="37YiKg0BrHQ1n1u5yyaF" name="Page-1">
        <mxGraphModel dx="426" dy="326" grid="1" gridSize="10" guides="1" tooltips="1" connect="1" arrows="1" fold="1" page="1" pageScale="1" pageWidth="850" pageHeight="1100" math="0" shadow="0">
            <root>
                <mxCell id="0"/>
                <mxCell id="1" parent="0"/>
                <mxCell id="4" value="GrabMilk()" style="whiteSpace=wrap;html=1;container=0;" vertex="1" parent="1">
                    <mxGeometry x="300" y="122.16" width="200" height="30" as="geometry"/>
                </mxCell>
                <mxCell id="13" value="OpenMilk()" style="rounded=0;whiteSpace=wrap;html=1;container=0;" vertex="1" parent="1">
                    <mxGeometry x="300" y="152.16" width="200" height="30" as="geometry"/>
                </mxCell>
                <mxCell id="17" value="" style="rounded=0;whiteSpace=wrap;html=1;container=0;" vertex="1" parent="1">
                    <mxGeometry x="300" y="182.16" width="200" height="57.84" as="geometry"/>
                </mxCell>
                <mxCell id="18" value="MilkInMug &amp;lt; DesiredAmount" style="text;html=1;strokeColor=none;fillColor=none;align=center;verticalAlign=middle;whiteSpace=wrap;rounded=0;" vertex="1" parent="1">
                    <mxGeometry x="300" y="182" width="160" height="30" as="geometry"/>
                </mxCell>
                <mxCell id="19" value="PourIntoMug(Milk)" style="rounded=0;whiteSpace=wrap;html=1;container=0;" vertex="1" parent="1">
                    <mxGeometry x="340" y="210" width="160" height="30" as="geometry"/>
                </mxCell>
            </root>
        </mxGraphModel>
    </diagram>
</mxfile>